{
  "accessors": [
    {
      "bufferView": 2,
      "componentType": 5126,
      "count": 239,
      "max": [
        1.0,
        1.7801616191864014,
        0.951056718826294
      ],
      "min": [
        -1.000000238418579,
        -1.0,
        -0.951056957244873
      ],
      "type": "VEC3"
    },
    {
      "bufferView": 2,
      "byteOffset": 2868,
      "componentType": 5126,
      "count": 239,
      "max": [
        1.0,
        1.0,
        0.9510565996170044
      ],
      "min": [
        -1.0,
        -1.0,
        -0.9510566592216492
      ],
      "type": "VEC3"
    },
    {
      "bufferView": 1,
      "componentType": 5126,
      "count": 239,
      "max": [
        0.9950865507125854,
        0.9861500263214111
      ],
      "min": [
        0.029029637575149536,
        0.012411395087838173
      ],
      "type": "VEC2"
    },
    {
      "bufferView": 0,
      "componentType": 5125,
      "count": 840,
      "type": "SCALAR"
    },
    {
      "bufferView": 2,
      "byteOffset": 5736,
      "componentType": 5126,
      "count": 239,
      "max": [
        1.0,
        1.7801616191864014,
        0.951056718826294
      ],
      "min": [
        -1.000000238418579,
        -1.0,
        -0.951056957244873
      ],
      "type": "VEC3"
    },
    {
      "bufferView": 2,
      "byteOffset": 8604,
      "componentType": 5126,
      "count": 239,
      "max": [
        1.0,
        1.0,
        0.9510565996170044
      ],
      "min": [
        -1.0,
        -1.0,
        -0.9510566592216492
      ],
      "type": "VEC3"
    },
    {
      "bufferView": 1,
      "byteOffset": 1912,
      "componentType": 5126,
      "count": 239,
      "max": [
        0.9950865507125854,
        0.9861500263214111
      ],
      "min": [
        0.029029637575149536,
        0.012411395087838173
      ],
      "type": "VEC2"
    },
    {
      "bufferView": 0,
      "byteOffset": 3360,
      "componentType": 5125,
      "count": 840,
      "type": "SCALAR"
    }
  ],
  "asset": {
    "extras": {
      "author": "Fabian van Dorst (https://sketchfab.com/FabianvanDorst)",
      "license": "CC-BY-4.0 (http://creativecommons.org/licenses/by/4.0/)",
      "source": "https://sketchfab.com/3d-models/johnnys-beer-d38460faf7c541668fa086eaa4d0b613",
      "title": "Johnny's Beer"
    },
    "generator": "Sketchfab-12.66.0",
    "version": "2.0"
  },
  "bufferViews": [
    {
      "buffer": 0,
      "byteLength": 6720,
      "name": "floatBufferViews",
      "target": 34963
    },
    {
      "buffer": 0,
      "byteLength": 3824,
      "byteOffset": 6720,
      "byteStride": 8,
      "name": "floatBufferViews",
      "target": 34962
    },
    {
      "buffer": 0,
      "byteLength": 11472,
      "byteOffset": 10544,
      "byteStride": 12,
      "name": "floatBufferViews",
      "target": 34962
    }
  ],
  "buffers": [
    {
      "byteLength": 22016,
      "uri": "scene.bin"
    }
  ],
  "images": [
    {
      "uri": "textures/lambert1_baseColor.png"
    },
    {
      "uri": "textures/lambert1_metallicRoughness.png"
    }
  ],
  "materials": [
    {
      "doubleSided": true,
      "name": "lambert1",
      "pbrMetallicRoughness": {
        "baseColorFactor": [
          0.3858612805,
          0.3858612805,
          0.3858612805,
          1.0
        ],
        "baseColorTexture": {
          "index": 0
        },
        "metallicFactor": 0.0,
        "metallicRoughnessTexture": {
          "index": 1
        }
      }
    }
  ],
  "meshes": [
    {
      "name": "Bottle_Low_lambert1_0",
      "primitives": [
        {
          "attributes": {
            "NORMAL": 1,
            "POSITION": 0,
            "TEXCOORD_0": 2
          },
          "indices": 3,
          "material": 0,
          "mode": 4
        }
      ]
    },
    {
      "name": "Bottle_Low1_lambert1_0",
      "primitives": [
        {
          "attributes": {
            "NORMAL": 5,
            "POSITION": 4,
            "TEXCOORD_0": 6
          },
          "indices": 7,
          "material": 0,
          "mode": 4
        }
      ]
    }
  ],
  "nodes": [
    {
      "children": [
        1
      ],
      "matrix": [
        0.49296894669532776,
        0.0,
        0.0,
        0.0,
        0.0,
        1.0946109500927287e-16,
        -0.49296894669532776,
        0.0,
        0.0,
        0.49296894669532776,
        1.0946109500927287e-16,
        0.0,
        0.0,
        0.0,
        0.0,
        1.0
      ],
      "name": "Sketchfab_model"
    },
    {
      "children": [
        2
      ],
      "matrix": [
        1.0,
        0.0,
        0.0,
        0.0,
        0.0,
        0.0,
        1.0,
        0.0,
        0.0,
        -1.0,
        0.0,
        0.0,
        0.0,
        0.0,
        0.0,
        1.0
      ],
      "name": "816b64bbc25b4265b7ef1bccbb75acf8.fbx"
    },
    {
      "children": [
        3,
        5
      ],
      "name": "RootNode"
    },
    {
      "children": [
        4
      ],
      "matrix": [
        1.0,
        0.0,
        0.0,
        0.0,
        0.0,
        2.7445428371429443,
        0.0,
        0.0,
        0.0,
        0.0,
        1.0,
        0.0,
        0.0,
        2.7011537551879883,
        0.026449304074048996,
        1.0
      ],
      "name": "Bottle_Low"
    },
    {
      "mesh": 0,
      "name": "Bottle_Low_lambert1_0"
    },
    {
      "children": [
        6
      ],
      "matrix": [
        0.5930463747693993,
        -0.004812975097271743,
        0.8051539186041303,
        0.0,
        2.209818900767313,
        0.009729390029302561,
        -1.6276121004999462,
        0.0,
        1.1657341758564144e-15,
        0.9999821339817665,
        0.005977601297543322,
        0.0,
        -1.2636479139328003,
        0.9383769631385803,
        -2.944796085357666,
        1.0
      ],
      "name": "Bottle_Low1"
    },
    {
      "mesh": 1,
      "name": "Bottle_Low1_lambert1_0"
    }
  ],
  "samplers": [
    {
      "magFilter": 9729,
      "minFilter": 9987,
      "wrapS": 10497,
      "wrapT": 10497
    }
  ],
  "scene": 0,
  "scenes": [
    {
      "name": "Sketchfab_Scene",
      "nodes": [
        0
      ]
    }
  ],
  "textures": [
    {
      "sampler": 0,
      "source": 0
    },
    {
      "sampler": 0,
      "source": 1
    }
  ]
}
