{
  "accessors": [
    {
      "bufferView": 2,
      "componentType": 5126,
      "count": 364,
      "max": [
        0.4000000059604645,
        -0.8386409282684326,
        0.3901677429676056
      ],
      "min": [
        -0.4000000059604645,
        -1.634258508682251,
        -0.043349165469408035
      ],
      "type": "VEC3"
    },
    {
      "bufferView": 2,
      "byteOffset": 4368,
      "componentType": 5126,
      "count": 364,
      "max": [
        1.0,
        0.9945219159126282,
        1.0
      ],
      "min": [
        -1.0,
        -0.994521975517273,
        -1.0
      ],
      "type": "VEC3"
    },
    {
      "bufferView": 3,
      "componentType": 5126,
      "count": 364,
      "max": [
        0.995418131351471,
        0.10501936823129654,
        0.7680175304412842,
        1.0
      ],
      "min": [
        -1.4581773029931355e-05,
        -0.7339579463005066,
        -1.0,
        1.0
      ],
      "type": "VEC4"
    },
    {
      "bufferView": 1,
      "componentType": 5126,
      "count": 364,
      "max": [
        0.882616400718689,
        0.9349269270896912
      ],
      "min": [
        0.004000000189989805,
        0.004000000189989805
      ],
      "type": "VEC2"
    },
    {
      "bufferView": 0,
      "componentType": 5125,
      "count": 1440,
      "type": "SCALAR"
    },
    {
      "bufferView": 2,
      "byteOffset": 8736,
      "componentType": 5126,
      "count": 364,
      "max": [
        -0.583204984664917,
        -0.8386409282684326,
        0.3901677429676056
      ],
      "min": [
        -1.3832049369812012,
        -1.634258508682251,
        -0.043349165469408035
      ],
      "type": "VEC3"
    },
    {
      "bufferView": 2,
      "byteOffset": 13104,
      "componentType": 5126,
      "count": 364,
      "max": [
        1.0,
        0.9945219159126282,
        1.0
      ],
      "min": [
        -1.0,
        -0.994521975517273,
        -1.0
      ],
      "type": "VEC3"
    },
    {
      "bufferView": 3,
      "byteOffset": 5824,
      "componentType": 5126,
      "count": 364,
      "max": [
        0.9954959154129028,
        0.10527834296226501,
        0.7680055499076843,
        1.0
      ],
      "min": [
        -0.1893676370382309,
        -0.9999993443489075,
        -1.0,
        1.0
      ],
      "type": "VEC4"
    },
    {
      "bufferView": 1,
      "byteOffset": 2912,
      "componentType": 5126,
      "count": 364,
      "max": [
        0.9959999918937683,
        0.751395046710968
      ],
      "min": [
        0.10111979395151138,
        0.004000000189989805
      ],
      "type": "VEC2"
    },
    {
      "bufferView": 0,
      "byteOffset": 5760,
      "componentType": 5125,
      "count": 1440,
      "type": "SCALAR"
    },
    {
      "bufferView": 2,
      "byteOffset": 17472,
      "componentType": 5126,
      "count": 364,
      "max": [
        -0.583204984664917,
        0.3978087604045868,
        0.3901677429676056
      ],
      "min": [
        -1.3832049369812012,
        -0.3978087902069092,
        -0.043349165469408035
      ],
      "type": "VEC3"
    },
    {
      "bufferView": 2,
      "byteOffset": 21840,
      "componentType": 5126,
      "count": 364,
      "max": [
        1.0,
        0.994521975517273,
        1.0
      ],
      "min": [
        -1.0,
        -0.994521975517273,
        -1.0
      ],
      "type": "VEC3"
    },
    {
      "bufferView": 3,
      "byteOffset": 11648,
      "componentType": 5126,
      "count": 364,
      "max": [
        0.9615991115570068,
        0.9999993443489075,
        0.767978310585022,
        1.0
      ],
      "min": [
        -0.1824740171432495,
        -6.711490641464479e-06,
        -1.0,
        1.0
      ],
      "type": "VEC4"
    },
    {
      "bufferView": 1,
      "byteOffset": 5824,
      "componentType": 5126,
      "count": 364,
      "max": [
        0.8860616683959961,
        0.751395046710968
      ],
      "min": [
        0.19823959469795227,
        0.004000000189989805
      ],
      "type": "VEC2"
    },
    {
      "bufferView": 0,
      "byteOffset": 11520,
      "componentType": 5125,
      "count": 1440,
      "type": "SCALAR"
    },
    {
      "bufferView": 2,
      "byteOffset": 26208,
      "componentType": 5126,
      "count": 364,
      "max": [
        0.4000000059604645,
        0.3978087604045868,
        0.3901677429676056
      ],
      "min": [
        -0.4000000059604645,
        -0.3978087902069092,
        -0.043349165469408035
      ],
      "type": "VEC3"
    },
    {
      "bufferView": 2,
      "byteOffset": 30576,
      "componentType": 5126,
      "count": 364,
      "max": [
        1.0,
        0.994521975517273,
        1.0
      ],
      "min": [
        -1.0,
        -0.994521975517273,
        -1.0
      ],
      "type": "VEC3"
    },
    {
      "bufferView": 3,
      "byteOffset": 17472,
      "componentType": 5126,
      "count": 364,
      "max": [
        0.9951120018959045,
        0.2689710855484009,
        0.768108606338501,
        1.0
      ],
      "min": [
        -1.4521929188049398e-05,
        -0.8420819044113159,
        -1.0,
        1.0
      ],
      "type": "VEC4"
    },
    {
      "bufferView": 1,
      "byteOffset": 8736,
      "componentType": 5126,
      "count": 364,
      "max": [
        0.9941835403442383,
        0.9730838537216187
      ],
      "min": [
        0.29535937309265137,
        0.004000000189989805
      ],
      "type": "VEC2"
    },
    {
      "bufferView": 0,
      "byteOffset": 17280,
      "componentType": 5125,
      "count": 1440,
      "type": "SCALAR"
    },
    {
      "bufferView": 2,
      "byteOffset": 34944,
      "componentType": 5126,
      "count": 364,
      "max": [
        0.4000000059604645,
        -0.8386409282684326,
        0.3901677429676056
      ],
      "min": [
        -0.4000000059604645,
        -1.634258508682251,
        -0.043349165469408035
      ],
      "type": "VEC3"
    },
    {
      "bufferView": 2,
      "byteOffset": 39312,
      "componentType": 5126,
      "count": 364,
      "max": [
        1.0,
        0.9945219159126282,
        1.0
      ],
      "min": [
        -1.0,
        -0.994521975517273,
        -1.0
      ],
      "type": "VEC3"
    },
    {
      "bufferView": 3,
      "byteOffset": 23296,
      "componentType": 5126,
      "count": 364,
      "max": [
        0.995418131351471,
        0.10501936823129654,
        0.7680175304412842,
        1.0
      ],
      "min": [
        -1.4581773029931355e-05,
        -0.7339579463005066,
        -1.0,
        1.0
      ],
      "type": "VEC4"
    },
    {
      "bufferView": 1,
      "byteOffset": 11648,
      "componentType": 5126,
      "count": 364,
      "max": [
        0.882616400718689,
        0.9349269270896912
      ],
      "min": [
        0.004000000189989805,
        0.004000000189989805
      ],
      "type": "VEC2"
    },
    {
      "bufferView": 0,
      "byteOffset": 23040,
      "componentType": 5125,
      "count": 1440,
      "type": "SCALAR"
    },
    {
      "bufferView": 2,
      "byteOffset": 43680,
      "componentType": 5126,
      "count": 364,
      "max": [
        -0.583204984664917,
        -0.8386409282684326,
        0.3901677429676056
      ],
      "min": [
        -1.3832049369812012,
        -1.634258508682251,
        -0.043349165469408035
      ],
      "type": "VEC3"
    },
    {
      "bufferView": 2,
      "byteOffset": 48048,
      "componentType": 5126,
      "count": 364,
      "max": [
        1.0,
        0.9945219159126282,
        1.0
      ],
      "min": [
        -1.0,
        -0.994521975517273,
        -1.0
      ],
      "type": "VEC3"
    },
    {
      "bufferView": 3,
      "byteOffset": 29120,
      "componentType": 5126,
      "count": 364,
      "max": [
        0.9954959154129028,
        0.10527834296226501,
        0.7680055499076843,
        1.0
      ],
      "min": [
        -0.1893676370382309,
        -0.9999993443489075,
        -1.0,
        1.0
      ],
      "type": "VEC4"
    },
    {
      "bufferView": 1,
      "byteOffset": 14560,
      "componentType": 5126,
      "count": 364,
      "max": [
        0.9959999918937683,
        0.751395046710968
      ],
      "min": [
        0.10111979395151138,
        0.004000000189989805
      ],
      "type": "VEC2"
    },
    {
      "bufferView": 0,
      "byteOffset": 28800,
      "componentType": 5125,
      "count": 1440,
      "type": "SCALAR"
    }
  ],
  "asset": {
    "extras": {
      "author": "kimlaughton (https://sketchfab.com/kimlaughton)",
      "license": "CC-BY-4.0 (http://creativecommons.org/licenses/by/4.0/)",
      "source": "https://sketchfab.com/3d-models/pills-04dc4c03025e4c5b860a5f9241e4917e",
      "title": "Pills"
    },
    "generator": "Sketchfab-12.68.0",
    "version": "2.0"
  },
  "bufferViews": [
    {
      "buffer": 0,
      "byteLength": 34560,
      "name": "floatBufferViews",
      "target": 34963
    },
    {
      "buffer": 0,
      "byteLength": 17472,
      "byteOffset": 34560,
      "byteStride": 8,
      "name": "floatBufferViews",
      "target": 34962
    },
    {
      "buffer": 0,
      "byteLength": 52416,
      "byteOffset": 52032,
      "byteStride": 12,
      "name": "floatBufferViews",
      "target": 34962
    },
    {
      "buffer": 0,
      "byteLength": 34944,
      "byteOffset": 104448,
      "byteStride": 16,
      "name": "floatBufferViews",
      "target": 34962
    }
  ],
  "buffers": [
    {
      "byteLength": 139392,
      "uri": "scene.bin"
    }
  ],
  "images": [
    {
      "uri": "textures/Pills_baseColor.jpeg"
    },
    {
      "uri": "textures/Pills_metallicRoughness.png"
    },
    {
      "uri": "textures/Pills_normal.png"
    }
  ],
  "materials": [
    {
      "doubleSided": true,
      "name": "Pills",
      "normalTexture": {
        "index": 2
      },
      "pbrMetallicRoughness": {
        "baseColorTexture": {
          "index": 0
        },
        "metallicFactor": 0.0,
        "metallicRoughnessTexture": {
          "index": 1
        }
      }
    }
  ],
  "meshes": [
    {
      "name": "Pill_1_Pills_0",
      "primitives": [
        {
          "attributes": {
            "NORMAL": 1,
            "POSITION": 0,
            "TANGENT": 2,
            "TEXCOORD_0": 3
          },
          "indices": 4,
          "material": 0,
          "mode": 4
        }
      ]
    },
    {
      "name": "Pill_2_Pills_0",
      "primitives": [
        {
          "attributes": {
            "NORMAL": 6,
            "POSITION": 5,
            "TANGENT": 7,
            "TEXCOORD_0": 8
          },
          "indices": 9,
          "material": 0,
          "mode": 4
        }
      ]
    },
    {
      "name": "Pill_3_Pills_0",
      "primitives": [
        {
          "attributes": {
            "NORMAL": 11,
            "POSITION": 10,
            "TANGENT": 12,
            "TEXCOORD_0": 13
          },
          "indices": 14,
          "material": 0,
          "mode": 4
        }
      ]
    },
    {
      "name": "Pill_4_Pills_0",
      "primitives": [
        {
          "attributes": {
            "NORMAL": 16,
            "POSITION": 15,
            "TANGENT": 17,
            "TEXCOORD_0": 18
          },
          "indices": 19,
          "material": 0,
          "mode": 4
        }
      ]
    },
    {
      "name": "Pill_005_Pills_0",
      "primitives": [
        {
          "attributes": {
            "NORMAL": 21,
            "POSITION": 20,
            "TANGENT": 22,
            "TEXCOORD_0": 23
          },
          "indices": 24,
          "material": 0,
          "mode": 4
        }
      ]
    },
    {
      "name": "Pill_006_Pills_0",
      "primitives": [
        {
          "attributes": {
            "NORMAL": 26,
            "POSITION": 25,
            "TANGENT": 27,
            "TEXCOORD_0": 28
          },
          "indices": 29,
          "material": 0,
          "mode": 4
        }
      ]
    }
  ],
  "nodes": [
    {
      "children": [
        1
      ],
      "matrix": [
        1.0,
        0.0,
        0.0,
        0.0,
        0.0,
        -5.053215392444312e-16,
        1.0,
        0.0,
        0.0,
        -1.0,
        -5.053215392444312e-16,
        0.0,
        -0.025255756452679634,
        -0.8145664334297182,
        1.1802978515624998,
        1.0
      ],
      "name": "Sketchfab_model"
    },
    {
      "children": [
        2
      ],
      "matrix": [
        1.0,
        0.0,
        0.0,
        0.0,
        0.0,
        -1.0,
        0.0,
        0.0,
        0.0,
        0.0,
        -1.0,
        0.0,
        0.0,
        0.0,
        0.0,
        1.0
      ],
      "name": "f832ed7e63f24dbfb7cda56dbd6f6a29.fbx"
    },
    {
      "children": [
        3,
        6,
        9,
        12,
        15,
        18
      ],
      "name": "RootNode"
    },
    {
      "children": [
        4
      ],
      "matrix": [
        1.0,
        0.0,
        0.0,
        0.0,
        0.0,
        1.0,
        0.0,
        0.0,
        0.0,
        0.0,
        1.0,
        0.0,
        -0.0525091290473938,
        -0.5678105354309082,
        0.22444862127304077,
        1.0
      ],
      "name": "Pill_1"
    },
    {
      "children": [
        5
      ],
      "matrix": [
        1.0,
        0.0,
        -0.0,
        0.0,
        0.0,
        1.0,
        0.0,
        0.0,
        0.0,
        0.0,
        1.0,
        0.0,
        0.0,
        1.2364497184753418,
        -0.17340928316116333,
        1.0
      ],
      "name": "Object_4"
    },
    {
      "mesh": 0,
      "name": "Pill_1_Pills_0"
    },
    {
      "children": [
        7
      ],
      "matrix": [
        0.9396926264280235,
        0.3420201278240845,
        0.0,
        0.0,
        -0.3420201278240845,
        0.9396926264280235,
        0.0,
        0.0,
        0.0,
        0.0,
        1.0,
        0.0,
        0.9921495914459229,
        -0.43539291620254517,
        0.22444862127304077,
        1.0
      ],
      "name": "Pill_2"
    },
    {
      "children": [
        8
      ],
      "matrix": [
        1.0,
        0.0,
        -0.0,
        0.0,
        0.0,
        1.0,
        0.0,
        0.0,
        0.0,
        0.0,
        1.0,
        0.0,
        0.9832049608230591,
        1.2364497184753418,
        -0.17340928316116333,
        1.0
      ],
      "name": "Object_7"
    },
    {
      "mesh": 1,
      "name": "Pill_2_Pills_0"
    },
    {
      "children": [
        10
      ],
      "matrix": [
        -4.3711388064693324e-08,
        -0.999999999999999,
        0.0,
        0.0,
        0.999999999999999,
        -4.3711388064693324e-08,
        0.0,
        0.0,
        0.0,
        0.0,
        1.0,
        0.0,
        -0.5300434827804565,
        0.21010637283325195,
        0.22444862127304077,
        1.0
      ],
      "name": "Pill_3"
    },
    {
      "children": [
        11
      ],
      "matrix": [
        1.0,
        0.0,
        -0.0,
        0.0,
        0.0,
        1.0,
        0.0,
        0.0,
        0.0,
        0.0,
        1.0,
        0.0,
        0.9832049608230591,
        0.0,
        -0.17340928316116333,
        1.0
      ],
      "name": "Object_10"
    },
    {
      "mesh": 2,
      "name": "Pill_3_Pills_0"
    },
    {
      "children": [
        13
      ],
      "matrix": [
        0.9848077521541908,
        0.17364818253298783,
        1.3877787807814457e-17,
        0.0,
        7.590403305890447e-09,
        -4.304731504589654e-08,
        0.9999999999999991,
        0.0,
        0.17364818253298764,
        -0.98480775215419,
        -4.3711389396960953e-08,
        0.0,
        -0.0023554768413305283,
        1.0134241580963135,
        0.4090689420700073,
        1.0
      ],
      "name": "Pill_4"
    },
    {
      "children": [
        14
      ],
      "matrix": [
        1.0,
        0.0,
        -0.0,
        0.0,
        0.0,
        1.0,
        0.0,
        0.0,
        0.0,
        0.0,
        1.0,
        0.0,
        0.0,
        0.0,
        -0.17340928316116333,
        1.0
      ],
      "name": "Object_13"
    },
    {
      "mesh": 3,
      "name": "Pill_4_Pills_0"
    },
    {
      "children": [
        16
      ],
      "matrix": [
        0.9848077521541908,
        0.1736481825329878,
        -1.6543612251060553e-24,
        0.0,
        0.1736481825329858,
        -0.9848077521541796,
        1.509958048709968e-07,
        0.0,
        2.622014708595426e-08,
        -1.487018391797192e-07,
        -0.9999999999999887,
        0.0,
        0.9630452394485474,
        0.7965465188026428,
        0.22444862127304077,
        1.0
      ],
      "name": "Pill_005"
    },
    {
      "children": [
        17
      ],
      "matrix": [
        1.0,
        0.0,
        -0.0,
        0.0,
        0.0,
        1.0,
        0.0,
        0.0,
        0.0,
        0.0,
        1.0,
        0.0,
        0.0,
        1.2364497184753418,
        -0.17340928316116333,
        1.0
      ],
      "name": "Object_16"
    },
    {
      "mesh": 4,
      "name": "Pill_005_Pills_0"
    },
    {
      "children": [
        19
      ],
      "matrix": [
        -0.1736477430437393,
        0.9848078296479001,
        -8.742277486174485e-08,
        0.0,
        0.9848078296477847,
        0.17364774304376152,
        4.7683714899969635e-07,
        0.0,
        4.847737253472482e-07,
        -3.2929384501733038e-09,
        -0.9999999999998823,
        0.0,
        -0.872744083404541,
        1.7144927978515625,
        0.22444862127304077,
        1.0
      ],
      "name": "Pill_006"
    },
    {
      "children": [
        20
      ],
      "matrix": [
        1.0,
        0.0,
        -0.0,
        0.0,
        0.0,
        1.0,
        0.0,
        0.0,
        0.0,
        0.0,
        1.0,
        0.0,
        0.9832049608230591,
        1.2364497184753418,
        -0.17340928316116333,
        1.0
      ],
      "name": "Object_19"
    },
    {
      "mesh": 5,
      "name": "Pill_006_Pills_0"
    }
  ],
  "samplers": [
    {
      "magFilter": 9729,
      "minFilter": 9987,
      "wrapS": 10497,
      "wrapT": 10497
    }
  ],
  "scene": 0,
  "scenes": [
    {
      "name": "Sketchfab_Scene",
      "nodes": [
        0
      ]
    }
  ],
  "textures": [
    {
      "sampler": 0,
      "source": 0
    },
    {
      "sampler": 0,
      "source": 1
    },
    {
      "sampler": 0,
      "source": 2
    }
  ]
}
