{
  "accessors": [
    {
      "bufferView": 2,
      "componentType": 5126,
      "count": 360,
      "max": [
        0.16672229766845703,
        0.09952706098556519,
        0.9449172019958496
      ],
      "min": [
        -0.1667184829711914,
        -0.09912604093551636,
        -0.6608065962791443
      ],
      "type": "VEC3"
    },
    {
      "bufferView": 2,
      "byteOffset": 4320,
      "componentType": 5126,
      "count": 360,
      "max": [
        0.9989946484565735,
        1.0,
        0.9999160766601563
      ],
      "min": [
        -0.9989946484565735,
        -0.9959748983383179,
        -0.9999160766601563
      ],
      "type": "VEC3"
    },
    {
      "bufferView": 1,
      "componentType": 5126,
      "count": 360,
      "max": [
        0.8609234690666199,
        0.800154983997345
      ],
      "min": [
        0.001318424940109253,
        0.0013184547424316406
      ],
      "type": "VEC2"
    },
    {
      "bufferView": 1,
      "byteOffset": 2880,
      "componentType": 5126,
      "count": 360,
      "max": [
        0.8609234690666199,
        0.800154983997345
      ],
      "min": [
        0.001318424940109253,
        0.0013184547424316406
      ],
      "type": "VEC2"
    },
    {
      "bufferView": 1,
      "byteOffset": 5760,
      "componentType": 5126,
      "count": 360,
      "max": [
        0.8609234690666199,
        0.800154983997345
      ],
      "min": [
        0.001318424940109253,
        0.0013184547424316406
      ],
      "type": "VEC2"
    },
    {
      "bufferView": 0,
      "componentType": 5125,
      "count": 1260,
      "type": "SCALAR"
    },
    {
      "bufferView": 2,
      "byteOffset": 8640,
      "componentType": 5126,
      "count": 180,
      "max": [
        0.04008007049560547,
        0.04012328386306763,
        0.09108686447143555
      ],
      "min": [
        -0.040085792541503906,
        -0.03996211290359497,
        -0.13613200187683105
      ],
      "type": "VEC3"
    },
    {
      "bufferView": 2,
      "byteOffset": 10800,
      "componentType": 5126,
      "count": 180,
      "max": [
        0.9989931583404541,
        1.0,
        0.3016568422317505
      ],
      "min": [
        -0.9989946484565735,
        -0.9959748983383179,
        0.0
      ],
      "type": "VEC3"
    },
    {
      "bufferView": 1,
      "byteOffset": 8640,
      "componentType": 5126,
      "count": 180,
      "max": [
        0.9588826894760132,
        0.5539260506629944
      ],
      "min": [
        0.8738341927528381,
        0.46010395884513855
      ],
      "type": "VEC2"
    },
    {
      "bufferView": 1,
      "byteOffset": 10080,
      "componentType": 5126,
      "count": 180,
      "max": [
        0.9588826894760132,
        0.5539260506629944
      ],
      "min": [
        0.8738341927528381,
        0.46010395884513855
      ],
      "type": "VEC2"
    },
    {
      "bufferView": 1,
      "byteOffset": 11520,
      "componentType": 5126,
      "count": 180,
      "max": [
        0.9588826894760132,
        0.5539260506629944
      ],
      "min": [
        0.8738341927528381,
        0.46010395884513855
      ],
      "type": "VEC2"
    },
    {
      "bufferView": 0,
      "byteOffset": 5040,
      "componentType": 5125,
      "count": 840,
      "type": "SCALAR"
    },
    {
      "bufferView": 2,
      "byteOffset": 12960,
      "componentType": 5126,
      "count": 105,
      "max": [
        -0.25812649726867676,
        -0.8499782681465149,
        3.4243836402893066
      ],
      "min": [
        -0.2633710205554962,
        -0.8552170395851135,
        2.514277935028076
      ],
      "type": "VEC3"
    },
    {
      "bufferView": 2,
      "byteOffset": 14220,
      "componentType": 5126,
      "count": 105,
      "max": [
        0.9999704360961914,
        0.9999986886978149,
        0.004699972458183765
      ],
      "min": [
        -0.9999707937240601,
        -0.9959721565246582,
        -0.6876811981201172
      ],
      "type": "VEC3"
    },
    {
      "bufferView": 1,
      "byteOffset": 12960,
      "componentType": 5126,
      "count": 105,
      "max": [
        0.0005000000237487257,
        0.0005000000237487257
      ],
      "min": [
        0.0005000000237487257,
        0.0005000000237487257
      ],
      "type": "VEC2"
    },
    {
      "bufferView": 1,
      "byteOffset": 13800,
      "componentType": 5126,
      "count": 105,
      "max": [
        0.0005000000237487257,
        0.0005000000237487257
      ],
      "min": [
        0.0005000000237487257,
        0.0005000000237487257
      ],
      "type": "VEC2"
    },
    {
      "bufferView": 1,
      "byteOffset": 14640,
      "componentType": 5126,
      "count": 105,
      "max": [
        0.0005000000237487257,
        0.0005000000237487257
      ],
      "min": [
        0.0005000000237487257,
        0.0005000000237487257
      ],
      "type": "VEC2"
    },
    {
      "bufferView": 0,
      "byteOffset": 8400,
      "componentType": 5125,
      "count": 519,
      "type": "SCALAR"
    },
    {
      "bufferView": 2,
      "byteOffset": 15480,
      "componentType": 5126,
      "count": 339,
      "max": [
        0.1471395492553711,
        0.1472870111465454,
        0.38223427534103394
      ],
      "min": [
        -0.1471385955810547,
        -0.14669495820999146,
        -0.9533407092094421
      ],
      "type": "VEC3"
    },
    {
      "bufferView": 2,
      "byteOffset": 19548,
      "componentType": 5126,
      "count": 339,
      "max": [
        0.9989932179450989,
        1.0,
        1.0
      ],
      "min": [
        -0.9989946484565735,
        -0.9988442063331604,
        -1.0
      ],
      "type": "VEC3"
    },
    {
      "bufferView": 1,
      "byteOffset": 15480,
      "componentType": 5126,
      "count": 339,
      "max": [
        0.9994999766349792,
        0.8001549243927002
      ],
      "min": [
        0.3096430003643036,
        0.0013185073621571064
      ],
      "type": "VEC2"
    },
    {
      "bufferView": 1,
      "byteOffset": 18192,
      "componentType": 5126,
      "count": 339,
      "max": [
        0.9994999766349792,
        0.8001549243927002
      ],
      "min": [
        0.3096430003643036,
        0.0013185073621571064
      ],
      "type": "VEC2"
    },
    {
      "bufferView": 1,
      "byteOffset": 20904,
      "componentType": 5126,
      "count": 339,
      "max": [
        0.9994999766349792,
        0.8001549243927002
      ],
      "min": [
        0.3096430003643036,
        0.0013185073621571064
      ],
      "type": "VEC2"
    },
    {
      "bufferView": 0,
      "byteOffset": 10476,
      "componentType": 5125,
      "count": 939,
      "type": "SCALAR"
    },
    {
      "bufferView": 2,
      "byteOffset": 23616,
      "componentType": 5126,
      "count": 501,
      "max": [
        0.08124780654907227,
        0.08132869005203247,
        0.5624898076057434
      ],
      "min": [
        -0.08124685287475586,
        -0.0810021162033081,
        0.3822341561317444
      ],
      "type": "VEC3"
    },
    {
      "bufferView": 2,
      "byteOffset": 29628,
      "componentType": 5126,
      "count": 501,
      "max": [
        0.9989931583404541,
        1.0,
        1.0
      ],
      "min": [
        -0.9989932179450989,
        -0.9959748983383179,
        -1.0
      ],
      "type": "VEC3"
    },
    {
      "bufferView": 1,
      "byteOffset": 23616,
      "componentType": 5126,
      "count": 501,
      "max": [
        0.9782388806343079,
        0.8078556060791016
      ],
      "min": [
        0.581391453742981,
        0.0013209900353103876
      ],
      "type": "VEC2"
    },
    {
      "bufferView": 1,
      "byteOffset": 27624,
      "componentType": 5126,
      "count": 501,
      "max": [
        0.9782388806343079,
        0.8078556060791016
      ],
      "min": [
        0.581391453742981,
        0.0013209900353103876
      ],
      "type": "VEC2"
    },
    {
      "bufferView": 1,
      "byteOffset": 31632,
      "componentType": 5126,
      "count": 501,
      "max": [
        0.9782388806343079,
        0.8078556060791016
      ],
      "min": [
        0.581391453742981,
        0.0013209900353103876
      ],
      "type": "VEC2"
    },
    {
      "bufferView": 0,
      "byteOffset": 14232,
      "componentType": 5125,
      "count": 1569,
      "type": "SCALAR"
    }
  ],
  "asset": {
    "extras": {
      "author": "stfuaahil (https://sketchfab.com/stfuaahil)",
      "license": "CC-BY-4.0 (http://creativecommons.org/licenses/by/4.0/)",
      "source": "https://sketchfab.com/3d-models/syringe-324b3ed0026940808db353c8c6d7450e",
      "title": "Syringe"
    },
    "generator": "Sketchfab-12.67.0",
    "version": "2.0"
  },
  "bufferViews": [
    {
      "buffer": 0,
      "byteLength": 20508,
      "name": "floatBufferViews",
      "target": 34963
    },
    {
      "buffer": 0,
      "byteLength": 35640,
      "byteOffset": 20508,
      "byteStride": 8,
      "name": "floatBufferViews",
      "target": 34962
    },
    {
      "buffer": 0,
      "byteLength": 35640,
      "byteOffset": 56148,
      "byteStride": 12,
      "name": "floatBufferViews",
      "target": 34962
    }
  ],
  "buffers": [
    {
      "byteLength": 91788,
      "uri": "scene.bin"
    }
  ],
  "extensionsUsed": [
    "KHR_materials_unlit"
  ],
  "images": [
    {
      "uri": "textures/syringe_barrel_baseColor.png"
    },
    {
      "uri": "textures/adapter_baseColor.png"
    },
    {
      "uri": "textures/needle_baseColor.png"
    },
    {
      "uri": "textures/plunger_baseColor.png"
    },
    {
      "uri": "textures/plunger_rubber_baseColor.png"
    }
  ],
  "materials": [
    {
      "alphaMode": "BLEND",
      "doubleSided": true,
      "extensions": {
        "KHR_materials_unlit": {}
      },
      "name": "syringe_barrel",
      "pbrMetallicRoughness": {
        "baseColorFactor": [
          1.0,
          1.0,
          1.0,
          0.7
        ],
        "baseColorTexture": {
          "index": 0
        },
        "metallicFactor": 0.0
      }
    },
    {
      "doubleSided": true,
      "extensions": {
        "KHR_materials_unlit": {}
      },
      "name": "adapter",
      "pbrMetallicRoughness": {
        "baseColorTexture": {
          "index": 1
        },
        "metallicFactor": 0.0
      }
    },
    {
      "doubleSided": true,
      "extensions": {
        "KHR_materials_unlit": {}
      },
      "name": "needle",
      "pbrMetallicRoughness": {
        "baseColorTexture": {
          "index": 2
        },
        "metallicFactor": 0.0
      }
    },
    {
      "doubleSided": true,
      "extensions": {
        "KHR_materials_unlit": {}
      },
      "name": "plunger",
      "pbrMetallicRoughness": {
        "baseColorTexture": {
          "index": 3
        },
        "metallicFactor": 0.0
      }
    },
    {
      "doubleSided": true,
      "extensions": {
        "KHR_materials_unlit": {}
      },
      "name": "plunger_rubber",
      "pbrMetallicRoughness": {
        "baseColorTexture": {
          "index": 4
        },
        "metallicFactor": 0.0
      }
    }
  ],
  "meshes": [
    {
      "name": "barrel_syringe_barrel_0",
      "primitives": [
        {
          "attributes": {
            "NORMAL": 1,
            "POSITION": 0,
            "TEXCOORD_0": 2,
            "TEXCOORD_1": 3,
            "TEXCOORD_2": 4
          },
          "indices": 5,
          "material": 0,
          "mode": 4
        }
      ]
    },
    {
      "name": "adapter_adapter_0",
      "primitives": [
        {
          "attributes": {
            "NORMAL": 7,
            "POSITION": 6,
            "TEXCOORD_0": 8,
            "TEXCOORD_1": 9,
            "TEXCOORD_2": 10
          },
          "indices": 11,
          "material": 1,
          "mode": 4
        }
      ]
    },
    {
      "name": "needle_needle_0",
      "primitives": [
        {
          "attributes": {
            "NORMAL": 13,
            "POSITION": 12,
            "TEXCOORD_0": 14,
            "TEXCOORD_1": 15,
            "TEXCOORD_2": 16
          },
          "indices": 17,
          "material": 2,
          "mode": 4
        }
      ]
    },
    {
      "name": "plunger_plunger_0",
      "primitives": [
        {
          "attributes": {
            "NORMAL": 19,
            "POSITION": 18,
            "TEXCOORD_0": 20,
            "TEXCOORD_1": 21,
            "TEXCOORD_2": 22
          },
          "indices": 23,
          "material": 3,
          "mode": 4
        }
      ]
    },
    {
      "name": "plunger_rubber_plunger_rubber_0",
      "primitives": [
        {
          "attributes": {
            "NORMAL": 25,
            "POSITION": 24,
            "TEXCOORD_0": 26,
            "TEXCOORD_1": 27,
            "TEXCOORD_2": 28
          },
          "indices": 29,
          "material": 4,
          "mode": 4
        }
      ]
    }
  ],
  "nodes": [
    {
      "children": [
        1
      ],
      "matrix": [
        1.0,
        0.0,
        0.0,
        0.0,
        0.0,
        2.220446049250313e-16,
        -1.0,
        0.0,
        0.0,
        1.0,
        2.220446049250313e-16,
        0.0,
        0.0,
        0.0,
        0.0,
        1.0
      ],
      "name": "Sketchfab_model"
    },
    {
      "children": [
        2
      ],
      "matrix": [
        1.0,
        0.0,
        0.0,
        0.0,
        0.0,
        0.0,
        1.0,
        0.0,
        0.0,
        -1.0,
        0.0,
        0.0,
        0.0,
        0.0,
        0.0,
        1.0
      ],
      "name": "911bd2d261454e4cb0149cb7362b243c.fbx"
    },
    {
      "children": [
        3,
        5,
        7,
        9,
        11
      ],
      "name": "RootNode"
    },
    {
      "children": [
        4
      ],
      "matrix": [
        100.0,
        0.0,
        0.0,
        0.0,
        -0.0,
        -1.629206793918314e-05,
        -99.99999999999868,
        0.0,
        0.0,
        99.99999999999868,
        -1.629206793918314e-05,
        0.0,
        -26.075077056884766,
        154.85916137695313,
        85.26031494140625,
        1.0
      ],
      "name": "barrel"
    },
    {
      "mesh": 0,
      "name": "barrel_syringe_barrel_0"
    },
    {
      "children": [
        6
      ],
      "matrix": [
        100.0,
        0.0,
        0.0,
        0.0,
        -0.0,
        -1.629206793918314e-05,
        -99.99999999999868,
        0.0,
        0.0,
        99.99999999999868,
        -1.629206793918314e-05,
        0.0,
        -26.074600219726563,
        257.5989685058594,
        85.2602767944336,
        1.0
      ],
      "name": "adapter"
    },
    {
      "mesh": 1,
      "name": "adapter_adapter_0"
    },
    {
      "children": [
        8
      ],
      "matrix": [
        100.0,
        0.0,
        0.0,
        0.0,
        0.0,
        -1.629206793918314e-05,
        -99.99999999999868,
        0.0,
        0.0,
        99.99999999999868,
        -1.629206793918314e-05,
        0.0,
        0.0,
        0.0,
        0.0,
        1.0
      ],
      "name": "needle"
    },
    {
      "mesh": 2,
      "name": "needle_needle_0"
    },
    {
      "children": [
        10
      ],
      "matrix": [
        100.0,
        0.0,
        0.0,
        0.0,
        -0.0,
        -1.629206793918314e-05,
        -99.99999999999868,
        0.0,
        0.0,
        99.99999999999868,
        -1.629206793918314e-05,
        0.0,
        -26.074934005737305,
        141.42486572265625,
        85.26025390625,
        1.0
      ],
      "name": "plunger"
    },
    {
      "mesh": 3,
      "name": "plunger_plunger_0"
    },
    {
      "children": [
        12
      ],
      "matrix": [
        100.0,
        0.0,
        0.0,
        0.0,
        -0.0,
        -1.629206793918314e-05,
        -99.99999999999868,
        0.0,
        0.0,
        99.99999999999868,
        -1.629206793918314e-05,
        0.0,
        -26.074934005737305,
        141.42486572265625,
        85.26025390625,
        1.0
      ],
      "name": "plunger_rubber"
    },
    {
      "mesh": 4,
      "name": "plunger_rubber_plunger_rubber_0"
    }
  ],
  "samplers": [
    {
      "magFilter": 9729,
      "minFilter": 9987,
      "wrapS": 10497,
      "wrapT": 10497
    }
  ],
  "scene": 0,
  "scenes": [
    {
      "name": "Sketchfab_Scene",
      "nodes": [
        0
      ]
    }
  ],
  "textures": [
    {
      "sampler": 0,
      "source": 0
    },
    {
      "sampler": 0,
      "source": 1
    },
    {
      "sampler": 0,
      "source": 2
    },
    {
      "sampler": 0,
      "source": 3
    },
    {
      "sampler": 0,
      "source": 4
    }
  ]
}
