{
  "accessors": [
    {
      "bufferView": 2,
      "componentType": 5126,
      "count": 379,
      "max": [
        0.48195120692253113,
        0.8336982727050781,
        -0.08458946645259857
      ],
      "min": [
        -0.4839315712451935,
        -0.8717249631881714,
        -0.38601505756378174
      ],
      "type": "VEC3"
    },
    {
      "bufferView": 2,
      "byteOffset": 4548,
      "componentType": 5126,
      "count": 379,
      "max": [
        0.8969891667366028,
        0.9000647664070129,
        0.9999841451644897
      ],
      "min": [
        -0.9261312484741211,
        -0.9161321520805359,
        0.22184300422668457
      ],
      "type": "VEC3"
    },
    {
      "bufferView": 3,
      "componentType": 5126,
      "count": 379,
      "max": [
        0.9986215829849243,
        0.9993604421615601,
        0.9750821590423584,
        1.0
      ],
      "min": [
        -0.3058317303657532,
        -0.6411744356155396,
        -0.9573855996131897,
        1.0
      ],
      "type": "VEC4"
    },
    {
      "bufferView": 1,
      "componentType": 5126,
      "count": 379,
      "max": [
        0.9954421520233154,
        0.9982905983924866
      ],
      "min": [
        0.005656301975250244,
        0.013410598039627075
      ],
      "type": "VEC2"
    },
    {
      "bufferView": 0,
      "componentType": 5125,
      "count": 1872,
      "type": "SCALAR"
    }
  ],
  "asset": {
    "extras": {
      "author": "Tamal De Quezo (https://sketchfab.com/Tamaldequeso)",
      "license": "CC-BY-4.0 (http://creativecommons.org/licenses/by/4.0/)",
      "source": "https://sketchfab.com/3d-models/corpse-be9b034525c246cebab3620acb5a8027",
      "title": "Corpse"
    },
    "generator": "Sketchfab-12.66.0",
    "version": "2.0"
  },
  "bufferViews": [
    {
      "buffer": 0,
      "byteLength": 7488,
      "name": "floatBufferViews",
      "target": 34963
    },
    {
      "buffer": 0,
      "byteLength": 3032,
      "byteOffset": 7488,
      "byteStride": 8,
      "name": "floatBufferViews",
      "target": 34962
    },
    {
      "buffer": 0,
      "byteLength": 9096,
      "byteOffset": 10520,
      "byteStride": 12,
      "name": "floatBufferViews",
      "target": 34962
    },
    {
      "buffer": 0,
      "byteLength": 6064,
      "byteOffset": 19616,
      "byteStride": 16,
      "name": "floatBufferViews",
      "target": 34962
    }
  ],
  "buffers": [
    {
      "byteLength": 25680,
      "uri": "scene.bin"
    }
  ],
  "images": [
    {
      "uri": "textures/muerto_baseColor.png"
    },
    {
      "uri": "textures/muerto_metallicRoughness.png"
    },
    {
      "uri": "textures/muerto_normal.png"
    }
  ],
  "materials": [
    {
      "doubleSided": true,
      "name": "muerto",
      "normalTexture": {
        "index": 2
      },
      "pbrMetallicRoughness": {
        "baseColorTexture": {
          "index": 0
        },
        "metallicFactor": 0.0,
        "metallicRoughnessTexture": {
          "index": 1
        },
        "roughnessFactor": 0.9441368890185993
      }
    }
  ],
  "meshes": [
    {
      "name": "muerto_muerto_0",
      "primitives": [
        {
          "attributes": {
            "NORMAL": 1,
            "POSITION": 0,
            "TANGENT": 2,
            "TEXCOORD_0": 3
          },
          "indices": 4,
          "material": 0,
          "mode": 4
        }
      ]
    }
  ],
  "nodes": [
    {
      "children": [
        1
      ],
      "matrix": [
        1.0,
        0.0,
        0.0,
        0.0,
        0.0,
        2.220446049250313e-16,
        -1.0,
        0.0,
        0.0,
        1.0,
        2.220446049250313e-16,
        0.0,
        0.0,
        0.0,
        0.0,
        1.0
      ],
      "name": "Sketchfab_model"
    },
    {
      "children": [
        2
      ],
      "matrix": [
        0.009999999776482582,
        0.0,
        0.0,
        0.0,
        0.0,
        0.0,
        0.009999999776482582,
        0.0,
        0.0,
        -0.009999999776482582,
        0.0,
        0.0,
        0.0,
        0.0,
        0.0,
        1.0
      ],
      "name": "cadaver.fbx"
    },
    {
      "children": [
        3
      ],
      "name": "RootNode"
    },
    {
      "children": [
        4
      ],
      "matrix": [
        100.0,
        0.0,
        0.0,
        0.0,
        0.0,
        -2.013432454701746e-05,
        -123.5836029052718,
        0.0,
        0.0,
        99.99999999999868,
        -1.629206793918314e-05,
        0.0,
        0.0,
        38.24396896362305,
        -10.954483985900879,
        1.0
      ],
      "name": "muerto"
    },
    {
      "mesh": 0,
      "name": "muerto_muerto_0"
    }
  ],
  "samplers": [
    {
      "magFilter": 9729,
      "minFilter": 9987,
      "wrapS": 10497,
      "wrapT": 10497
    }
  ],
  "scene": 0,
  "scenes": [
    {
      "name": "Sketchfab_Scene",
      "nodes": [
        0
      ]
    }
  ],
  "textures": [
    {
      "sampler": 0,
      "source": 0
    },
    {
      "sampler": 0,
      "source": 1
    },
    {
      "sampler": 0,
      "source": 2
    }
  ]
}
