{
  "accessors": [
    {
      "bufferView": 2,
      "componentType": 5126,
      "count": 65532,
      "max": [
        0.23316499590873718,
        -7.695359230041504,
        1.2818599939346313
      ],
      "min": [
        -0.38638100028038025,
        -8.314322471618652,
        -0.33586499094963074
      ],
      "type": "VEC3"
    },
    {
      "bufferView": 2,
      "byteOffset": 786384,
      "componentType": 5126,
      "count": 65532,
      "max": [
        0.9999998807907104,
        0.9999244809150696,
        0.999995231628418
      ],
      "min": [
        -0.999965250492096,
        -0.9999763369560242,
        -0.999881386756897
      ],
      "type": "VEC3"
    },
    {
      "bufferView": 1,
      "componentType": 5126,
      "count": 65532,
      "max": [
        0.994979977607727,
        0.9998189806938171
      ],
      "min": [
        0.007592999842017889,
        0.002822000067681074
      ],
      "type": "VEC2"
    },
    {
      "bufferView": 0,
      "componentType": 5125,
      "count": 331302,
      "type": "SCALAR"
    },
    {
      "bufferView": 2,
      "byteOffset": 1572768,
      "componentType": 5126,
      "count": 56744,
      "max": [
        0.21144400537014008,
        -7.6788330078125,
        1.2818599939346313
      ],
      "min": [
        -0.38638100028038025,
        -8.221464157104492,
        -0.33586499094963074
      ],
      "type": "VEC3"
    },
    {
      "bufferView": 2,
      "byteOffset": 2253696,
      "componentType": 5126,
      "count": 56744,
      "max": [
        0.9999692440032959,
        0.9999984502792358,
        0.9999433755874634
      ],
      "min": [
        -0.9999639987945557,
        -0.9999697804450989,
        -0.9999813437461853
      ],
      "type": "VEC3"
    },
    {
      "bufferView": 1,
      "byteOffset": 524256,
      "componentType": 5126,
      "count": 56744,
      "max": [
        0.9946640133857727,
        1.000432014465332
      ],
      "min": [
        0.0034370000939816236,
        0.002901999978348613
      ],
      "type": "VEC2"
    },
    {
      "bufferView": 0,
      "byteOffset": 1325208,
      "componentType": 5125,
      "count": 268698,
      "type": "SCALAR"
    }
  ],
  "asset": {
    "extras": {
      "author": "roiwizard (https://sketchfab.com/roiwizard)",
      "license": "CC-BY-4.0 (http://creativecommons.org/licenses/by/4.0/)",
      "source": "https://sketchfab.com/3d-models/new-weed-model-1d254948d7e74c638f52293f6574cc77",
      "title": "NEW WEED MODEL"
    },
    "generator": "Sketchfab-12.68.0",
    "version": "2.0"
  },
  "bufferViews": [
    {
      "buffer": 0,
      "byteLength": 2400000,
      "name": "floatBufferViews",
      "target": 34963
    },
    {
      "buffer": 0,
      "byteLength": 978208,
      "byteOffset": 2400000,
      "byteStride": 8,
      "name": "floatBufferViews",
      "target": 34962
    },
    {
      "buffer": 0,
      "byteLength": 2934624,
      "byteOffset": 3378208,
      "byteStride": 12,
      "name": "floatBufferViews",
      "target": 34962
    }
  ],
  "buffers": [
    {
      "byteLength": 6312832,
      "uri": "scene.bin"
    }
  ],
  "extensionsUsed": [
    "KHR_materials_unlit"
  ],
  "images": [
    {
      "uri": "textures/5.1001_baseColor.jpeg"
    }
  ],
  "materials": [
    {
      "doubleSided": true,
      "extensions": {
        "KHR_materials_unlit": {}
      },
      "name": "5.1001",
      "pbrMetallicRoughness": {
        "baseColorTexture": {
          "index": 0
        },
        "metallicFactor": 0.0
      }
    }
  ],
  "meshes": [
    {
      "name": "Object_0",
      "primitives": [
        {
          "attributes": {
            "NORMAL": 1,
            "POSITION": 0,
            "TEXCOORD_0": 2
          },
          "indices": 3,
          "material": 0,
          "mode": 4
        }
      ]
    },
    {
      "name": "Object_1",
      "primitives": [
        {
          "attributes": {
            "NORMAL": 5,
            "POSITION": 4,
            "TEXCOORD_0": 6
          },
          "indices": 7,
          "material": 0,
          "mode": 4
        }
      ]
    }
  ],
  "nodes": [
    {
      "children": [
        1
      ],
      "matrix": [
        0.0226263627409935,
        -0.44958046078681924,
        -0.8929532170295716,
        0.0,
        0.9965911507606506,
        -0.06073651090264322,
        0.055831793695688234,
        0.0,
        -0.07933574914932251,
        -0.8911725282669068,
        0.446673661470413,
        0.0,
        7.931966304779053,
        0.3743955790996533,
        8.163354873657227,
        1.0
      ],
      "name": "Sketchfab_model"
    },
    {
      "children": [
        2,
        3
      ],
      "name": "5.obj.cleaner.materialmerger.gles"
    },
    {
      "mesh": 0,
      "name": "Object_2"
    },
    {
      "mesh": 1,
      "name": "Object_3"
    }
  ],
  "samplers": [
    {
      "magFilter": 9729,
      "minFilter": 9987,
      "wrapS": 10497,
      "wrapT": 10497
    }
  ],
  "scene": 0,
  "scenes": [
    {
      "name": "Sketchfab_Scene",
      "nodes": [
        0
      ]
    }
  ],
  "textures": [
    {
      "sampler": 0,
      "source": 0
    }
  ]
}
